<svg width="36" height="36" viewBox="0 0 36 36" fill="none" xmlns="http://www.w3.org/2000/svg">
<circle cx="18.0195" cy="18.2167" r="17.5351" fill="#D1FFE4"/>
<path d="M24.9462 16.9915H10.2656M24.9462 19.0305V16.0128C24.9462 14.6425 24.9462 13.9573 24.6795 13.4339C24.4449 12.9735 24.0706 12.5992 23.6102 12.3647C23.0868 12.098 22.4017 12.098 21.0314 12.098H14.1804C12.8101 12.098 12.125 12.098 11.6016 12.3647C11.1412 12.5992 10.7669 12.9735 10.5323 13.4339C10.2656 13.9573 10.2656 14.6425 10.2656 16.0128V22.8637C10.2656 24.234 10.2656 24.9192 10.5323 25.4426C10.7669 25.903 11.1412 26.2773 11.6016 26.5118C12.125 26.7785 12.8101 26.7785 14.1804 26.7785H17.6059M20.8682 10.4668V13.7291M14.3436 10.4668V13.7291M19.6449 24.3318L21.276 25.9629L24.9462 22.2928" stroke="#319759" stroke-width="1.63117" stroke-linecap="round" stroke-linejoin="round"/>
</svg>
