<svg width="26" height="26" viewBox="0 0 26 26" fill="none" xmlns="http://www.w3.org/2000/svg">
<rect width="25.7143" height="25.7143" rx="3.85714" fill="white"/>
<rect x="0.321429" y="0.321429" width="25.0714" height="25.0714" rx="3.53571" fill="white"/>
<rect x="0.321429" y="0.321429" width="25.0714" height="25.0714" rx="3.53571" stroke="#D0D5DD" stroke-width="0.642857"/>
<path d="M7.07031 12.8571C7.07031 12.4835 7.07031 12.2967 7.10728 12.1434C7.20759 11.7274 7.5 11.4025 7.87436 11.2911C8.01232 11.25 8.18046 11.25 8.51674 11.25H17.1953C17.5316 11.25 17.6998 11.25 17.8377 11.2911C18.2121 11.4025 18.5045 11.7274 18.6048 12.1434C18.6417 12.2967 18.6417 12.4835 18.6417 12.8571C18.6417 13.2308 18.6417 13.4176 18.6048 13.5709C18.5045 13.9868 18.2121 14.3117 17.8377 14.4232C17.6998 14.4643 17.5316 14.4643 17.1953 14.4643H8.51674C8.18046 14.4643 8.01232 14.4643 7.87436 14.4232C7.5 14.3117 7.20759 13.9868 7.10728 13.5709C7.07031 13.4176 7.07031 13.2308 7.07031 12.8571Z" stroke="#141B34" stroke-width="0.964286"/>
</svg>
